<?xml version="1.0" encoding="UTF-8"?>
<svg xmlns="http://www.w3.org/2000/svg" xmlns:xlink="http://www.w3.org/1999/xlink" viewBox="0 0 500 500" width="500px" height="500px">
<g id="surface38035275">
<path style=" stroke:none;fill-rule:nonzero;fill:rgb(84.313726%,27.843139%,27.843139%);fill-opacity:1;" d="M 250 30 C 128.5 30 30 128.5 30 250 C 30 401.878906 133.875 445.386719 203.886719 459.746094 C 204.277344 459.824219 204.660156 459.863281 205.019531 459.863281 C 210.070312 459.863281 212.0625 452.550781 206.953125 450.3125 C 132.851562 417.902344 80.300781 343.269531 91.601562 254.941406 C 102.5625 169.203125 172.449219 100.691406 258.359375 91.191406 C 265.648438 90.382812 272.871094 90 280 90 C 355.410156 90 420.445312 133.957031 451.074219 197.636719 C 452.0625 199.6875 453.824219 200.585938 455.585938 200.585938 C 458.535156 200.585938 461.449219 198.074219 460.488281 194.375 C 443.027344 127.105469 390 30 250 30 Z M 290 140 C 204.808594 140 136.195312 211.011719 140.15625 297.070312 C 143.667969 373.460938 206.53125 436.3125 282.910156 439.824219 C 285.28125 439.945312 287.660156 440 290 440 C 372.851562 440 440 372.851562 440 290 C 440 278.191406 438.605469 266.703125 436.015625 255.683594 C 435.425781 253.195312 433.324219 251.835938 431.152344 251.835938 C 429.613281 251.835938 428.0625 252.515625 426.972656 253.964844 C 415.121094 269.765625 396.269531 280 375 280 C 373.96875 280 372.933594 279.972656 371.894531 279.921875 C 340.316406 278.453125 313.480469 253.179688 310.332031 221.71875 C 307.632812 194.777344 321.421875 170.824219 342.792969 158.613281 C 346.5625 156.464844 346.246094 151.003906 342.1875 149.472656 C 325.9375 143.402344 308.378906 140 290 140 Z M 442.96875 265.957031 L 443.007812 265.957031 Z M 442.96875 265.957031 "/>
</g>
</svg>
