<?xml version="1.0" encoding="UTF-8"?>
<svg xmlns="http://www.w3.org/2000/svg" xmlns:xlink="http://www.w3.org/1999/xlink" viewBox="0 0 480 480" width="480px" height="480px">
<g id="surface38960140">
<path style=" stroke:none;fill-rule:nonzero;fill:rgb(85.490197%,26.666668%,32.549021%);fill-opacity:1;" d="M 129.25 447.34375 L 129.25 39.34375 L 206.796875 39.34375 L 206.796875 435.34375 Z M 129.25 447.34375 "/>
<path style=" stroke:none;fill-rule:nonzero;fill:rgb(80.392158%,25.098041%,29.803923%);fill-opacity:1;" d="M 129.25 450.34375 C 128.546875 450.34375 127.855469 450.089844 127.3125 449.621094 C 126.644531 449.046875 126.265625 448.210938 126.265625 447.34375 L 126.265625 39.34375 C 126.265625 37.6875 127.605469 36.34375 129.25 36.34375 L 206.796875 36.34375 C 208.441406 36.34375 209.777344 37.6875 209.777344 39.34375 L 209.777344 435.34375 C 209.777344 436.824219 208.707031 438.085938 207.25 438.304688 L 129.703125 450.304688 C 129.554688 450.328125 129.398438 450.34375 129.25 450.34375 Z M 132.234375 42.34375 L 132.234375 443.84375 L 203.8125 432.769531 L 203.8125 42.34375 Z M 132.234375 42.34375 "/>
<path style=" stroke:none;fill-rule:nonzero;fill:rgb(85.490197%,26.666668%,32.549021%);fill-opacity:1;" d="M 272.414062 39.34375 L 272.414062 225.34375 L 343.996094 441.34375 L 343.996094 39.34375 Z M 272.414062 39.34375 "/>
<path style=" stroke:none;fill-rule:nonzero;fill:rgb(80.392158%,25.098041%,29.803923%);fill-opacity:1;" d="M 343.996094 444.34375 C 342.730469 444.34375 341.578125 443.53125 341.160156 442.289062 L 269.578125 226.289062 C 269.484375 225.984375 269.429688 225.660156 269.429688 225.34375 L 269.429688 39.34375 C 269.429688 37.6875 270.765625 36.34375 272.414062 36.34375 L 343.996094 36.34375 C 345.640625 36.34375 346.976562 37.6875 346.976562 39.34375 L 346.976562 441.34375 C 346.976562 442.8125 345.914062 444.066406 344.472656 444.300781 C 344.308594 444.328125 344.148438 444.34375 343.996094 444.34375 Z M 275.394531 224.855469 L 341.011719 422.855469 L 341.011719 42.34375 L 275.394531 42.34375 Z M 275.394531 224.855469 "/>
<path style=" stroke:none;fill-rule:nonzero;fill:rgb(85.490197%,26.666668%,32.549021%);fill-opacity:1;" d="M 206.796875 39.34375 L 129.566406 39.34375 L 266.449219 435.34375 L 343.996094 441.34375 Z M 206.796875 39.34375 "/>
<path style=" stroke:none;fill-rule:nonzero;fill:rgb(80.392158%,25.098041%,29.803923%);fill-opacity:1;" d="M 343.996094 444.34375 C 343.917969 444.34375 343.84375 444.34375 343.765625 444.328125 L 266.222656 438.328125 C 265.039062 438.238281 264.019531 437.453125 263.625 436.324219 L 126.746094 40.324219 C 126.429688 39.414062 126.578125 38.394531 127.132812 37.601562 C 127.6875 36.808594 128.59375 36.34375 129.558594 36.34375 L 206.796875 36.34375 C 208.074219 36.34375 209.199219 37.15625 209.617188 38.371094 L 346.816406 440.371094 C 347.144531 441.324219 346.964844 442.378906 346.355469 443.179688 C 345.789062 443.910156 344.914062 444.34375 343.996094 444.34375 Z M 268.625 432.496094 L 339.699219 438 L 204.667969 42.34375 L 133.757812 42.34375 Z M 268.625 432.496094 "/>
</g>
</svg>
